<mxfile host="65bd71144e">
    <diagram id="qXxqdQvtK7WFDd165J_8" name="用語">
        <mxGraphModel dx="666" dy="429" grid="1" gridSize="10" guides="1" tooltips="1" connect="1" arrows="1" fold="1" page="1" pageScale="1" pageWidth="850" pageHeight="1100" math="0" shadow="0">
            <root>
                <mxCell id="0"/>
                <mxCell id="1" parent="0"/>
                <mxCell id="2" value="" style="rounded=0;whiteSpace=wrap;html=1;" parent="1" vertex="1">
                    <mxGeometry x="200" y="120" width="400" height="200" as="geometry"/>
                </mxCell>
                <mxCell id="3" value="アプリケーション" style="text;html=1;align=center;verticalAlign=middle;whiteSpace=wrap;rounded=0;" parent="1" vertex="1">
                    <mxGeometry x="200" y="120" width="120" height="30" as="geometry"/>
                </mxCell>
                <mxCell id="4" value="" style="rounded=0;whiteSpace=wrap;html=1;" parent="1" vertex="1">
                    <mxGeometry x="250" y="170" width="270" height="80" as="geometry"/>
                </mxCell>
                <mxCell id="5" value="プロセス" style="text;html=1;align=center;verticalAlign=middle;whiteSpace=wrap;rounded=0;" parent="1" vertex="1">
                    <mxGeometry x="250" y="170" width="70" height="30" as="geometry"/>
                </mxCell>
                <mxCell id="6" value="スレッド" style="text;html=1;align=center;verticalAlign=middle;whiteSpace=wrap;rounded=0;strokeColor=default;" parent="1" vertex="1">
                    <mxGeometry x="270" y="200" width="70" height="30" as="geometry"/>
                </mxCell>
                <mxCell id="7" value="スレッド" style="text;html=1;align=center;verticalAlign=middle;whiteSpace=wrap;rounded=0;strokeColor=default;" parent="1" vertex="1">
                    <mxGeometry x="350" y="200" width="70" height="30" as="geometry"/>
                </mxCell>
                <mxCell id="8" value="スレッド" style="text;html=1;align=center;verticalAlign=middle;whiteSpace=wrap;rounded=0;strokeColor=default;" parent="1" vertex="1">
                    <mxGeometry x="430" y="200" width="70" height="30" as="geometry"/>
                </mxCell>
                <mxCell id="9" value="" style="rounded=0;whiteSpace=wrap;html=1;" parent="1" vertex="1">
                    <mxGeometry x="250" y="260" width="270" height="50" as="geometry"/>
                </mxCell>
                <mxCell id="10" value="プロセス" style="text;html=1;align=center;verticalAlign=middle;whiteSpace=wrap;rounded=0;" parent="1" vertex="1">
                    <mxGeometry x="250" y="260" width="70" height="30" as="geometry"/>
                </mxCell>
            </root>
        </mxGraphModel>
    </diagram>
    <diagram id="YRK0IQDTBVxjZ_hkPZsu" name="プロセス">
        <mxGraphModel dx="1516" dy="429" grid="1" gridSize="10" guides="1" tooltips="1" connect="1" arrows="1" fold="1" page="1" pageScale="1" pageWidth="850" pageHeight="1100" math="0" shadow="0">
            <root>
                <mxCell id="0"/>
                <mxCell id="1" parent="0"/>
                <mxCell id="TT6Wm54mUDwwZ6PAAnVR-5" value="OS" style="rounded=0;whiteSpace=wrap;html=1;" parent="1" vertex="1">
                    <mxGeometry x="200" y="59" width="80" height="40" as="geometry"/>
                </mxCell>
                <mxCell id="TT6Wm54mUDwwZ6PAAnVR-15" value="" style="endArrow=classic;html=1;exitX=0.25;exitY=1;exitDx=0;exitDy=0;entryX=0.5;entryY=0;entryDx=0;entryDy=0;edgeStyle=orthogonalEdgeStyle;rounded=0;curved=0;" parent="1" source="TT6Wm54mUDwwZ6PAAnVR-5" edge="1" target="TT6Wm54mUDwwZ6PAAnVR-18">
                    <mxGeometry width="50" height="50" relative="1" as="geometry">
                        <mxPoint x="530" y="150" as="sourcePoint"/>
                        <mxPoint x="180" y="150" as="targetPoint"/>
                        <Array as="points">
                            <mxPoint x="220" y="120"/>
                            <mxPoint x="85" y="120"/>
                        </Array>
                    </mxGeometry>
                </mxCell>
                <mxCell id="TT6Wm54mUDwwZ6PAAnVR-16" value="割り当てる" style="text;html=1;align=center;verticalAlign=middle;whiteSpace=wrap;rounded=0;" parent="1" vertex="1">
                    <mxGeometry x="205" y="120" width="70" height="30" as="geometry"/>
                </mxCell>
                <mxCell id="TT6Wm54mUDwwZ6PAAnVR-18" value="" style="rounded=0;whiteSpace=wrap;html=1;" parent="1" vertex="1">
                    <mxGeometry x="-50" y="170" width="270" height="200" as="geometry"/>
                </mxCell>
                <mxCell id="TT6Wm54mUDwwZ6PAAnVR-19" value="プロセス" style="text;html=1;align=center;verticalAlign=middle;whiteSpace=wrap;rounded=0;" parent="1" vertex="1">
                    <mxGeometry x="-50" y="170" width="70" height="30" as="geometry"/>
                </mxCell>
                <mxCell id="TT6Wm54mUDwwZ6PAAnVR-20" value="メモリ" style="rounded=0;whiteSpace=wrap;html=1;dashed=1;verticalAlign=top;" parent="1" vertex="1">
                    <mxGeometry x="50" y="180" width="150" height="110" as="geometry"/>
                </mxCell>
                <mxCell id="TT6Wm54mUDwwZ6PAAnVR-21" value="ヒープ" style="rounded=0;whiteSpace=wrap;html=1;dashed=1;verticalAlign=middle;" parent="1" vertex="1">
                    <mxGeometry x="60" y="210" width="60" height="30" as="geometry"/>
                </mxCell>
                <mxCell id="TT6Wm54mUDwwZ6PAAnVR-22" value="スタック" style="rounded=0;whiteSpace=wrap;html=1;dashed=1;verticalAlign=middle;" parent="1" vertex="1">
                    <mxGeometry x="60" y="250" width="60" height="30" as="geometry"/>
                </mxCell>
                <mxCell id="TT6Wm54mUDwwZ6PAAnVR-23" value="コード" style="rounded=0;whiteSpace=wrap;html=1;dashed=1;verticalAlign=middle;" parent="1" vertex="1">
                    <mxGeometry x="130" y="210" width="60" height="30" as="geometry"/>
                </mxCell>
                <mxCell id="TT6Wm54mUDwwZ6PAAnVR-24" value="環境変数" style="rounded=0;whiteSpace=wrap;html=1;dashed=1;verticalAlign=top;" parent="1" vertex="1">
                    <mxGeometry x="50" y="298" width="150" height="26" as="geometry"/>
                </mxCell>
                <mxCell id="TT6Wm54mUDwwZ6PAAnVR-25" value="ファイルディスクリプタ" style="rounded=0;whiteSpace=wrap;html=1;dashed=1;verticalAlign=top;" parent="1" vertex="1">
                    <mxGeometry x="50" y="331" width="150" height="26" as="geometry"/>
                </mxCell>
                <mxCell id="TT6Wm54mUDwwZ6PAAnVR-27" value="プロセスID" style="rounded=0;whiteSpace=wrap;html=1;dashed=1;verticalAlign=middle;" parent="1" vertex="1">
                    <mxGeometry x="-40" y="200" width="80" height="30" as="geometry"/>
                </mxCell>
                <mxCell id="TT6Wm54mUDwwZ6PAAnVR-28" value="データ" style="rounded=0;whiteSpace=wrap;html=1;dashed=1;verticalAlign=middle;" parent="1" vertex="1">
                    <mxGeometry x="130" y="250" width="60" height="30" as="geometry"/>
                </mxCell>
                <mxCell id="TT6Wm54mUDwwZ6PAAnVR-29" value="" style="endArrow=classic;html=1;exitX=0.75;exitY=1;exitDx=0;exitDy=0;entryX=0.5;entryY=0;entryDx=0;entryDy=0;edgeStyle=orthogonalEdgeStyle;rounded=0;curved=0;" parent="1" edge="1" target="J94tK2lAg_j1tBVnkdhR-14" source="TT6Wm54mUDwwZ6PAAnVR-5">
                    <mxGeometry width="50" height="50" relative="1" as="geometry">
                        <mxPoint x="262" y="90" as="sourcePoint"/>
                        <mxPoint x="308" y="153" as="targetPoint"/>
                        <Array as="points">
                            <mxPoint x="260" y="120"/>
                            <mxPoint x="395" y="120"/>
                        </Array>
                    </mxGeometry>
                </mxCell>
                <mxCell id="TT6Wm54mUDwwZ6PAAnVR-31" style="edgeStyle=orthogonalEdgeStyle;html=1;entryX=0.5;entryY=1;entryDx=0;entryDy=0;exitX=0;exitY=0.5;exitDx=0;exitDy=0;rounded=0;curved=0;" parent="1" source="TT6Wm54mUDwwZ6PAAnVR-30" target="TT6Wm54mUDwwZ6PAAnVR-18" edge="1">
                    <mxGeometry relative="1" as="geometry"/>
                </mxCell>
                <mxCell id="TT6Wm54mUDwwZ6PAAnVR-32" style="edgeStyle=orthogonalEdgeStyle;html=1;entryX=0.5;entryY=1;entryDx=0;entryDy=0;exitX=1;exitY=0.5;exitDx=0;exitDy=0;rounded=0;" parent="1" source="TT6Wm54mUDwwZ6PAAnVR-30" target="J94tK2lAg_j1tBVnkdhR-14" edge="1">
                    <mxGeometry relative="1" as="geometry">
                        <mxPoint x="385" y="390" as="targetPoint"/>
                    </mxGeometry>
                </mxCell>
                <mxCell id="TT6Wm54mUDwwZ6PAAnVR-30" value="互いに独立している" style="text;html=1;align=center;verticalAlign=middle;whiteSpace=wrap;rounded=0;" parent="1" vertex="1">
                    <mxGeometry x="160" y="420" width="160" height="30" as="geometry"/>
                </mxCell>
                <mxCell id="TT6Wm54mUDwwZ6PAAnVR-34" value="スレッド" style="rounded=0;whiteSpace=wrap;html=1;dashed=1;verticalAlign=top;" parent="1" vertex="1">
                    <mxGeometry x="-40" y="240" width="80" height="70" as="geometry"/>
                </mxCell>
                <mxCell id="J94tK2lAg_j1tBVnkdhR-1" value="レジスタ" style="rounded=0;whiteSpace=wrap;html=1;dashed=1;verticalAlign=middle;" vertex="1" parent="1">
                    <mxGeometry x="-30" y="270" width="60" height="30" as="geometry"/>
                </mxCell>
                <mxCell id="J94tK2lAg_j1tBVnkdhR-14" value="" style="rounded=0;whiteSpace=wrap;html=1;" vertex="1" parent="1">
                    <mxGeometry x="260" y="170" width="270" height="200" as="geometry"/>
                </mxCell>
                <mxCell id="J94tK2lAg_j1tBVnkdhR-15" value="プロセス" style="text;html=1;align=center;verticalAlign=middle;whiteSpace=wrap;rounded=0;" vertex="1" parent="1">
                    <mxGeometry x="260" y="170" width="70" height="30" as="geometry"/>
                </mxCell>
                <mxCell id="J94tK2lAg_j1tBVnkdhR-16" value="メモリ" style="rounded=0;whiteSpace=wrap;html=1;dashed=1;verticalAlign=top;" vertex="1" parent="1">
                    <mxGeometry x="360" y="180" width="150" height="110" as="geometry"/>
                </mxCell>
                <mxCell id="J94tK2lAg_j1tBVnkdhR-17" value="ヒープ" style="rounded=0;whiteSpace=wrap;html=1;dashed=1;verticalAlign=middle;" vertex="1" parent="1">
                    <mxGeometry x="370" y="210" width="60" height="30" as="geometry"/>
                </mxCell>
                <mxCell id="J94tK2lAg_j1tBVnkdhR-18" value="スタック" style="rounded=0;whiteSpace=wrap;html=1;dashed=1;verticalAlign=middle;" vertex="1" parent="1">
                    <mxGeometry x="370" y="250" width="60" height="30" as="geometry"/>
                </mxCell>
                <mxCell id="J94tK2lAg_j1tBVnkdhR-19" value="コード" style="rounded=0;whiteSpace=wrap;html=1;dashed=1;verticalAlign=middle;" vertex="1" parent="1">
                    <mxGeometry x="440" y="210" width="60" height="30" as="geometry"/>
                </mxCell>
                <mxCell id="J94tK2lAg_j1tBVnkdhR-20" value="環境変数" style="rounded=0;whiteSpace=wrap;html=1;dashed=1;verticalAlign=top;" vertex="1" parent="1">
                    <mxGeometry x="360" y="298" width="150" height="26" as="geometry"/>
                </mxCell>
                <mxCell id="J94tK2lAg_j1tBVnkdhR-21" value="ファイルディスクリプタ" style="rounded=0;whiteSpace=wrap;html=1;dashed=1;verticalAlign=top;" vertex="1" parent="1">
                    <mxGeometry x="360" y="331" width="150" height="26" as="geometry"/>
                </mxCell>
                <mxCell id="J94tK2lAg_j1tBVnkdhR-22" value="プロセスID" style="rounded=0;whiteSpace=wrap;html=1;dashed=1;verticalAlign=middle;" vertex="1" parent="1">
                    <mxGeometry x="270" y="200" width="80" height="30" as="geometry"/>
                </mxCell>
                <mxCell id="J94tK2lAg_j1tBVnkdhR-23" value="データ" style="rounded=0;whiteSpace=wrap;html=1;dashed=1;verticalAlign=middle;" vertex="1" parent="1">
                    <mxGeometry x="440" y="250" width="60" height="30" as="geometry"/>
                </mxCell>
                <mxCell id="J94tK2lAg_j1tBVnkdhR-24" value="スレッド" style="rounded=0;whiteSpace=wrap;html=1;dashed=1;verticalAlign=top;" vertex="1" parent="1">
                    <mxGeometry x="270" y="240" width="80" height="70" as="geometry"/>
                </mxCell>
                <mxCell id="J94tK2lAg_j1tBVnkdhR-25" value="レジスタ" style="rounded=0;whiteSpace=wrap;html=1;dashed=1;verticalAlign=middle;" vertex="1" parent="1">
                    <mxGeometry x="280" y="270" width="60" height="30" as="geometry"/>
                </mxCell>
            </root>
        </mxGraphModel>
    </diagram>
    <diagram id="0R4oXms8SK1mXZiviHqU" name="スレッド">
        <mxGraphModel dx="555" dy="358" grid="1" gridSize="10" guides="1" tooltips="1" connect="1" arrows="1" fold="1" page="1" pageScale="1" pageWidth="850" pageHeight="1100" math="0" shadow="0">
            <root>
                <mxCell id="0"/>
                <mxCell id="1" parent="0"/>
                <mxCell id="7zItq0yMIiHoBnUy2kPw-1" value="" style="rounded=0;whiteSpace=wrap;html=1;" vertex="1" parent="1">
                    <mxGeometry x="40" y="140" width="360" height="240" as="geometry"/>
                </mxCell>
                <mxCell id="7zItq0yMIiHoBnUy2kPw-2" value="プロセス" style="text;html=1;align=center;verticalAlign=middle;whiteSpace=wrap;rounded=0;" vertex="1" parent="1">
                    <mxGeometry x="80" y="140" width="70" height="30" as="geometry"/>
                </mxCell>
                <mxCell id="7zItq0yMIiHoBnUy2kPw-3" value="メモリ" style="rounded=0;whiteSpace=wrap;html=1;dashed=1;verticalAlign=top;" vertex="1" parent="1">
                    <mxGeometry x="90" y="170" width="150" height="100" as="geometry"/>
                </mxCell>
                <mxCell id="7zItq0yMIiHoBnUy2kPw-4" value="ヒープ" style="rounded=0;whiteSpace=wrap;html=1;dashed=1;verticalAlign=middle;" vertex="1" parent="1">
                    <mxGeometry x="97" y="195" width="60" height="30" as="geometry"/>
                </mxCell>
                <mxCell id="7zItq0yMIiHoBnUy2kPw-5" value="スタック" style="rounded=0;whiteSpace=wrap;html=1;dashed=1;verticalAlign=middle;" vertex="1" parent="1">
                    <mxGeometry x="97" y="230" width="60" height="30" as="geometry"/>
                </mxCell>
                <mxCell id="7zItq0yMIiHoBnUy2kPw-6" value="コード" style="rounded=0;whiteSpace=wrap;html=1;dashed=1;verticalAlign=middle;" vertex="1" parent="1">
                    <mxGeometry x="167" y="230" width="60" height="30" as="geometry"/>
                </mxCell>
                <mxCell id="7zItq0yMIiHoBnUy2kPw-8" value="ファイル&lt;div&gt;ディスクリプタ&lt;/div&gt;" style="rounded=0;whiteSpace=wrap;html=1;dashed=1;verticalAlign=top;" vertex="1" parent="1">
                    <mxGeometry x="245" y="169" width="100" height="40" as="geometry"/>
                </mxCell>
                <mxCell id="7zItq0yMIiHoBnUy2kPw-11" value="データ" style="rounded=0;whiteSpace=wrap;html=1;dashed=1;verticalAlign=middle;" vertex="1" parent="1">
                    <mxGeometry x="167" y="195" width="60" height="30" as="geometry"/>
                </mxCell>
                <mxCell id="7zItq0yMIiHoBnUy2kPw-12" value="スレッド" style="rounded=0;whiteSpace=wrap;html=1;dashed=1;verticalAlign=top;align=left;" vertex="1" parent="1">
                    <mxGeometry x="90" y="300" width="140" height="60" as="geometry"/>
                </mxCell>
                <mxCell id="S3eryKR5eet6NvQm090l-2" value="スタック" style="rounded=0;whiteSpace=wrap;html=1;dashed=1;verticalAlign=middle;" vertex="1" parent="1">
                    <mxGeometry x="100" y="330" width="60" height="24" as="geometry"/>
                </mxCell>
                <mxCell id="S3eryKR5eet6NvQm090l-3" value="" style="endArrow=classic;html=1;exitX=0.5;exitY=1;exitDx=0;exitDy=0;entryX=0.75;entryY=0;entryDx=0;entryDy=0;edgeStyle=orthogonalEdgeStyle;rounded=0;curved=0;" edge="1" parent="1" source="7zItq0yMIiHoBnUy2kPw-5" target="S3eryKR5eet6NvQm090l-2">
                    <mxGeometry width="50" height="50" relative="1" as="geometry">
                        <mxPoint x="230" y="250" as="sourcePoint"/>
                        <mxPoint x="280" y="200" as="targetPoint"/>
                    </mxGeometry>
                </mxCell>
                <mxCell id="r2AL4RaKiBszpF2fkvRc-1" value="環境変数" style="rounded=0;whiteSpace=wrap;html=1;dashed=1;verticalAlign=middle;" vertex="1" parent="1">
                    <mxGeometry x="245" y="230" width="100" height="40" as="geometry"/>
                </mxCell>
                <mxCell id="r2AL4RaKiBszpF2fkvRc-2" value="レジスタ" style="rounded=0;whiteSpace=wrap;html=1;dashed=1;verticalAlign=middle;" vertex="1" parent="1">
                    <mxGeometry x="167" y="330" width="56" height="24" as="geometry"/>
                </mxCell>
                <mxCell id="hHTqRdhLSM2cTRjGLWvC-1" value="割り当てる" style="text;html=1;align=center;verticalAlign=middle;whiteSpace=wrap;rounded=0;fillColor=default;" vertex="1" parent="1">
                    <mxGeometry x="50" y="275" width="70" height="20" as="geometry"/>
                </mxCell>
                <mxCell id="hHTqRdhLSM2cTRjGLWvC-2" value="スレッド" style="rounded=0;whiteSpace=wrap;html=1;dashed=1;verticalAlign=top;align=left;" vertex="1" parent="1">
                    <mxGeometry x="240" y="300" width="140" height="60" as="geometry"/>
                </mxCell>
                <mxCell id="hHTqRdhLSM2cTRjGLWvC-3" value="スタック" style="rounded=0;whiteSpace=wrap;html=1;dashed=1;verticalAlign=middle;" vertex="1" parent="1">
                    <mxGeometry x="250" y="330" width="60" height="24" as="geometry"/>
                </mxCell>
                <mxCell id="hHTqRdhLSM2cTRjGLWvC-4" value="レジスタ" style="rounded=0;whiteSpace=wrap;html=1;dashed=1;verticalAlign=middle;" vertex="1" parent="1">
                    <mxGeometry x="317" y="330" width="56" height="24" as="geometry"/>
                </mxCell>
                <mxCell id="H2W2Qkq90CIvC4fH28JQ-1" value="CPU" style="rounded=0;whiteSpace=wrap;html=1;" vertex="1" parent="1">
                    <mxGeometry x="200" y="420" width="80" height="30" as="geometry"/>
                </mxCell>
                <mxCell id="H2W2Qkq90CIvC4fH28JQ-2" value="" style="endArrow=classic;html=1;exitX=0.5;exitY=1;exitDx=0;exitDy=0;entryX=0.25;entryY=0;entryDx=0;entryDy=0;edgeStyle=orthogonalEdgeStyle;rounded=0;curved=0;" edge="1" parent="1" source="r2AL4RaKiBszpF2fkvRc-2" target="H2W2Qkq90CIvC4fH28JQ-1">
                    <mxGeometry width="50" height="50" relative="1" as="geometry">
                        <mxPoint x="138.5" y="380" as="sourcePoint"/>
                        <mxPoint x="156.5" y="450" as="targetPoint"/>
                        <Array as="points">
                            <mxPoint x="195" y="400"/>
                            <mxPoint x="220" y="400"/>
                        </Array>
                    </mxGeometry>
                </mxCell>
                <mxCell id="H2W2Qkq90CIvC4fH28JQ-3" value="レジスタ情報をロード" style="text;html=1;align=center;verticalAlign=middle;whiteSpace=wrap;rounded=0;" vertex="1" parent="1">
                    <mxGeometry x="97" y="390" width="90" height="30" as="geometry"/>
                </mxCell>
                <mxCell id="H2W2Qkq90CIvC4fH28JQ-4" value="共有リソース&lt;div&gt;（スレッドから見たら）&lt;/div&gt;" style="text;html=1;align=center;verticalAlign=middle;whiteSpace=wrap;rounded=0;" vertex="1" parent="1">
                    <mxGeometry x="418" y="209" width="140" height="30" as="geometry"/>
                </mxCell>
                <mxCell id="H2W2Qkq90CIvC4fH28JQ-5" value="" style="shape=curlyBracket;whiteSpace=wrap;html=1;rounded=1;flipH=1;labelPosition=right;verticalLabelPosition=middle;align=left;verticalAlign=middle;size=0.1111111111111111;" vertex="1" parent="1">
                    <mxGeometry x="350" y="160" width="68" height="117" as="geometry"/>
                </mxCell>
                <mxCell id="H2W2Qkq90CIvC4fH28JQ-6" value="" style="shape=curlyBracket;whiteSpace=wrap;html=1;rounded=1;flipH=1;labelPosition=right;verticalLabelPosition=middle;align=left;verticalAlign=middle;size=0.1111111111111111;" vertex="1" parent="1">
                    <mxGeometry x="380" y="290" width="68" height="77" as="geometry"/>
                </mxCell>
                <mxCell id="H2W2Qkq90CIvC4fH28JQ-7" value="スレッド間で独立" style="text;html=1;align=center;verticalAlign=middle;whiteSpace=wrap;rounded=0;" vertex="1" parent="1">
                    <mxGeometry x="448" y="313.5" width="112" height="30" as="geometry"/>
                </mxCell>
            </root>
        </mxGraphModel>
    </diagram>
    <diagram id="D9OzBZbPfyLWyYezPp0_" name="並行処理と並列処理">
        <mxGraphModel dx="441" dy="429" grid="1" gridSize="10" guides="1" tooltips="1" connect="1" arrows="1" fold="1" page="1" pageScale="1" pageWidth="850" pageHeight="1100" math="0" shadow="0">
            <root>
                <mxCell id="0"/>
                <mxCell id="1" parent="0"/>
                <mxCell id="MMLQFs2tQo27sih7dxOX-2" value="" style="sketch=0;pointerEvents=1;shadow=0;dashed=0;html=1;strokeColor=none;fillColor=#434445;aspect=fixed;labelPosition=center;verticalLabelPosition=bottom;verticalAlign=top;align=center;outlineConnect=0;shape=mxgraph.vvd.cpu;" vertex="1" parent="1">
                    <mxGeometry x="960" y="178" width="40" height="40" as="geometry"/>
                </mxCell>
                <mxCell id="MMLQFs2tQo27sih7dxOX-3" value="CPU" style="text;html=1;align=center;verticalAlign=middle;whiteSpace=wrap;rounded=0;" vertex="1" parent="1">
                    <mxGeometry x="920" y="188" width="40" height="20" as="geometry"/>
                </mxCell>
                <mxCell id="MMLQFs2tQo27sih7dxOX-4" value="処理A" style="rounded=0;whiteSpace=wrap;html=1;" vertex="1" parent="1">
                    <mxGeometry x="1020" y="178" width="260" height="40" as="geometry"/>
                </mxCell>
                <mxCell id="MMLQFs2tQo27sih7dxOX-5" value="処理B" style="rounded=0;whiteSpace=wrap;html=1;" vertex="1" parent="1">
                    <mxGeometry x="1020" y="228" width="260" height="40" as="geometry"/>
                </mxCell>
                <mxCell id="MMLQFs2tQo27sih7dxOX-6" value="" style="sketch=0;pointerEvents=1;shadow=0;dashed=0;html=1;strokeColor=none;fillColor=#434445;aspect=fixed;labelPosition=center;verticalLabelPosition=bottom;verticalAlign=top;align=center;outlineConnect=0;shape=mxgraph.vvd.cpu;" vertex="1" parent="1">
                    <mxGeometry x="960" y="228" width="40" height="40" as="geometry"/>
                </mxCell>
                <mxCell id="MMLQFs2tQo27sih7dxOX-7" value="CPU" style="text;html=1;align=center;verticalAlign=middle;whiteSpace=wrap;rounded=0;" vertex="1" parent="1">
                    <mxGeometry x="920" y="238" width="40" height="20" as="geometry"/>
                </mxCell>
                <mxCell id="MMLQFs2tQo27sih7dxOX-8" value="" style="endArrow=classic;html=1;" edge="1" parent="1">
                    <mxGeometry width="50" height="50" relative="1" as="geometry">
                        <mxPoint x="1020" y="280" as="sourcePoint"/>
                        <mxPoint x="1280" y="280" as="targetPoint"/>
                    </mxGeometry>
                </mxCell>
                <mxCell id="MMLQFs2tQo27sih7dxOX-9" value="t時間" style="text;html=1;align=center;verticalAlign=middle;whiteSpace=wrap;rounded=0;" vertex="1" parent="1">
                    <mxGeometry x="1120" y="280" width="60" height="20" as="geometry"/>
                </mxCell>
                <mxCell id="MMLQFs2tQo27sih7dxOX-10" value="" style="sketch=0;pointerEvents=1;shadow=0;dashed=0;html=1;strokeColor=none;fillColor=#434445;aspect=fixed;labelPosition=center;verticalLabelPosition=bottom;verticalAlign=top;align=center;outlineConnect=0;shape=mxgraph.vvd.cpu;" vertex="1" parent="1">
                    <mxGeometry x="550" y="200" width="40" height="40" as="geometry"/>
                </mxCell>
                <mxCell id="MMLQFs2tQo27sih7dxOX-11" value="CPU" style="text;html=1;align=center;verticalAlign=middle;whiteSpace=wrap;rounded=0;" vertex="1" parent="1">
                    <mxGeometry x="510" y="210" width="40" height="20" as="geometry"/>
                </mxCell>
                <mxCell id="MMLQFs2tQo27sih7dxOX-12" value="処理A" style="rounded=0;whiteSpace=wrap;html=1;" vertex="1" parent="1">
                    <mxGeometry x="610" y="200" width="60" height="40" as="geometry"/>
                </mxCell>
                <mxCell id="MMLQFs2tQo27sih7dxOX-13" value="処理B" style="rounded=0;whiteSpace=wrap;html=1;" vertex="1" parent="1">
                    <mxGeometry x="680" y="200" width="60" height="40" as="geometry"/>
                </mxCell>
                <mxCell id="MMLQFs2tQo27sih7dxOX-16" value="" style="endArrow=classic;html=1;" edge="1" parent="1">
                    <mxGeometry width="50" height="50" relative="1" as="geometry">
                        <mxPoint x="610" y="280" as="sourcePoint"/>
                        <mxPoint x="870" y="280" as="targetPoint"/>
                    </mxGeometry>
                </mxCell>
                <mxCell id="MMLQFs2tQo27sih7dxOX-17" value="t時間" style="text;html=1;align=center;verticalAlign=middle;whiteSpace=wrap;rounded=0;" vertex="1" parent="1">
                    <mxGeometry x="710" y="280" width="60" height="20" as="geometry"/>
                </mxCell>
                <mxCell id="MMLQFs2tQo27sih7dxOX-18" value="" style="endArrow=none;html=1;" edge="1" parent="1">
                    <mxGeometry width="50" height="50" relative="1" as="geometry">
                        <mxPoint x="900" y="280" as="sourcePoint"/>
                        <mxPoint x="900" y="160" as="targetPoint"/>
                    </mxGeometry>
                </mxCell>
                <mxCell id="MMLQFs2tQo27sih7dxOX-19" value="処理A" style="rounded=0;whiteSpace=wrap;html=1;" vertex="1" parent="1">
                    <mxGeometry x="750" y="200" width="60" height="40" as="geometry"/>
                </mxCell>
                <mxCell id="MMLQFs2tQo27sih7dxOX-20" value="処理B" style="rounded=0;whiteSpace=wrap;html=1;" vertex="1" parent="1">
                    <mxGeometry x="820" y="200" width="60" height="40" as="geometry"/>
                </mxCell>
                <mxCell id="MMLQFs2tQo27sih7dxOX-21" value="並行処理" style="text;strokeColor=none;fillColor=none;html=1;fontSize=24;fontStyle=1;verticalAlign=middle;align=center;" vertex="1" parent="1">
                    <mxGeometry x="670" y="120" width="100" height="40" as="geometry"/>
                </mxCell>
                <mxCell id="MMLQFs2tQo27sih7dxOX-22" value="並列処理" style="text;strokeColor=none;fillColor=none;html=1;fontSize=24;fontStyle=1;verticalAlign=middle;align=center;" vertex="1" parent="1">
                    <mxGeometry x="1100" y="120" width="100" height="40" as="geometry"/>
                </mxCell>
            </root>
        </mxGraphModel>
    </diagram>
    <diagram id="yH6o89Q2WR0pL6c5NgwO" name="WSGI">
        <mxGraphModel dx="441" dy="429" grid="1" gridSize="10" guides="1" tooltips="1" connect="1" arrows="1" fold="1" page="1" pageScale="1" pageWidth="850" pageHeight="1100" math="0" shadow="0">
            <root>
                <mxCell id="0"/>
                <mxCell id="1" parent="0"/>
                <mxCell id="6X8Cktp8YYHda3-lq0kp-4" style="edgeStyle=none;html=1;exitX=1;exitY=0.25;exitDx=0;exitDy=0;entryX=0;entryY=0.25;entryDx=0;entryDy=0;" edge="1" parent="1" source="6X8Cktp8YYHda3-lq0kp-1" target="6X8Cktp8YYHda3-lq0kp-2">
                    <mxGeometry relative="1" as="geometry"/>
                </mxCell>
                <mxCell id="6X8Cktp8YYHda3-lq0kp-1" value="Webサーバー&lt;div&gt;（NginX、Apache）&lt;/div&gt;" style="rounded=0;whiteSpace=wrap;html=1;" vertex="1" parent="1">
                    <mxGeometry x="80" y="200" width="120" height="60" as="geometry"/>
                </mxCell>
                <mxCell id="6X8Cktp8YYHda3-lq0kp-5" style="edgeStyle=none;html=1;exitX=0;exitY=0.75;exitDx=0;exitDy=0;entryX=1;entryY=0.75;entryDx=0;entryDy=0;" edge="1" parent="1" source="6X8Cktp8YYHda3-lq0kp-2" target="6X8Cktp8YYHda3-lq0kp-1">
                    <mxGeometry relative="1" as="geometry"/>
                </mxCell>
                <mxCell id="6X8Cktp8YYHda3-lq0kp-6" style="edgeStyle=none;html=1;exitX=1;exitY=0.25;exitDx=0;exitDy=0;entryX=0;entryY=0.25;entryDx=0;entryDy=0;" edge="1" parent="1" source="6X8Cktp8YYHda3-lq0kp-2" target="6X8Cktp8YYHda3-lq0kp-3">
                    <mxGeometry relative="1" as="geometry"/>
                </mxCell>
                <mxCell id="6X8Cktp8YYHda3-lq0kp-2" value="WSGI&lt;div&gt;（uWSGI, Gunicorn）&lt;/div&gt;" style="rounded=0;whiteSpace=wrap;html=1;" vertex="1" parent="1">
                    <mxGeometry x="240" y="200" width="140" height="60" as="geometry"/>
                </mxCell>
                <mxCell id="6X8Cktp8YYHda3-lq0kp-7" style="edgeStyle=none;html=1;exitX=0;exitY=0.75;exitDx=0;exitDy=0;entryX=1;entryY=0.75;entryDx=0;entryDy=0;" edge="1" parent="1" source="6X8Cktp8YYHda3-lq0kp-3" target="6X8Cktp8YYHda3-lq0kp-2">
                    <mxGeometry relative="1" as="geometry"/>
                </mxCell>
                <mxCell id="6X8Cktp8YYHda3-lq0kp-3" value="WSGI準拠の&lt;div&gt;Webアプリケーション&lt;div&gt;（フレームワーク：Flask、Django）&lt;/div&gt;&lt;/div&gt;" style="rounded=0;whiteSpace=wrap;html=1;" vertex="1" parent="1">
                    <mxGeometry x="420" y="200" width="230" height="60" as="geometry"/>
                </mxCell>
            </root>
        </mxGraphModel>
    </diagram>
    <diagram id="KN3UBShqrCzu-Gnw6Pif" name="ASGI">
        <mxGraphModel dx="441" dy="429" grid="1" gridSize="10" guides="1" tooltips="1" connect="1" arrows="1" fold="1" page="1" pageScale="1" pageWidth="850" pageHeight="1100" math="0" shadow="0">
            <root>
                <mxCell id="0"/>
                <mxCell id="1" parent="0"/>
                <mxCell id="b5FrzGnyQs-LnW0iyz4q-1" style="edgeStyle=none;html=1;exitX=1;exitY=0.25;exitDx=0;exitDy=0;entryX=0;entryY=0.25;entryDx=0;entryDy=0;" edge="1" parent="1" source="b5FrzGnyQs-LnW0iyz4q-2" target="b5FrzGnyQs-LnW0iyz4q-5">
                    <mxGeometry relative="1" as="geometry"/>
                </mxCell>
                <mxCell id="b5FrzGnyQs-LnW0iyz4q-2" value="Webサーバー&lt;div&gt;（NginX、Apache）&lt;/div&gt;" style="rounded=0;whiteSpace=wrap;html=1;" vertex="1" parent="1">
                    <mxGeometry x="80" y="200" width="120" height="60" as="geometry"/>
                </mxCell>
                <mxCell id="b5FrzGnyQs-LnW0iyz4q-3" style="edgeStyle=none;html=1;exitX=0;exitY=0.75;exitDx=0;exitDy=0;entryX=1;entryY=0.75;entryDx=0;entryDy=0;" edge="1" parent="1" source="b5FrzGnyQs-LnW0iyz4q-5" target="b5FrzGnyQs-LnW0iyz4q-2">
                    <mxGeometry relative="1" as="geometry"/>
                </mxCell>
                <mxCell id="b5FrzGnyQs-LnW0iyz4q-4" style="edgeStyle=none;html=1;exitX=1;exitY=0.25;exitDx=0;exitDy=0;entryX=0;entryY=0.25;entryDx=0;entryDy=0;" edge="1" parent="1" source="b5FrzGnyQs-LnW0iyz4q-5" target="b5FrzGnyQs-LnW0iyz4q-7">
                    <mxGeometry relative="1" as="geometry"/>
                </mxCell>
                <mxCell id="b5FrzGnyQs-LnW0iyz4q-5" value="ASGI&lt;div&gt;（uvicorn,NGINX Unit）&lt;/div&gt;" style="rounded=0;whiteSpace=wrap;html=1;" vertex="1" parent="1">
                    <mxGeometry x="240" y="200" width="140" height="60" as="geometry"/>
                </mxCell>
                <mxCell id="b5FrzGnyQs-LnW0iyz4q-6" style="edgeStyle=none;html=1;exitX=0;exitY=0.75;exitDx=0;exitDy=0;entryX=1;entryY=0.75;entryDx=0;entryDy=0;" edge="1" parent="1" source="b5FrzGnyQs-LnW0iyz4q-7" target="b5FrzGnyQs-LnW0iyz4q-5">
                    <mxGeometry relative="1" as="geometry"/>
                </mxCell>
                <mxCell id="b5FrzGnyQs-LnW0iyz4q-7" value="ASGI準拠の&lt;div&gt;Webアプリケーション&lt;div&gt;（フレームワーク：FastAPI、Quart）&lt;/div&gt;&lt;/div&gt;" style="rounded=0;whiteSpace=wrap;html=1;" vertex="1" parent="1">
                    <mxGeometry x="420" y="200" width="220" height="60" as="geometry"/>
                </mxCell>
            </root>
        </mxGraphModel>
    </diagram>
</mxfile>